{"title":"Lets.Be.Cops.2014.720p.BRRip.x264.AC3-WiNTeaM","uid":11295370,"size":2730220780,"categoryP":"video","categoryS":"hd___movies","magnet":"?xt=urn:btih:7ae6511de661598ab204676c9ef96cd451962e76&amp;dn=Lets.Be.Cops.2014.720p.BRRip.x264.AC3-WiNTeaM&amp;tr=udp%3A%2F%2Ftracker.openbittorrent.com%3A80&amp;tr=udp%3A%2F%2Fopen.demonii.com%3A1337&amp;tr=udp%3A%2F%2Ftracker.coppersurfer.tk%3A6969&amp;tr=udp%3A%2F%2Fexodus.desync.com%3A6969","seeders":2,"leechers":1,"uploader":"TvTeam","files":16,"time":1414373219,"description":" &lt;a href=&quot;http://www.torrenting.com&quot; rel=&quot;nofollow&quot; target=&quot;_NEW&quot;&gt;http://www.torrenting.com&lt;/a&gt;\n\nSign up is OPEN - for time being. Come and have fun.\n\n\n------------------------------------------------------------------------\n    __          ___ _   _ _______         __  __ \n             / (_)  | |__   __|       |  /  |\n        /  / / _|  | |  | | ___  __ _|   / |\n       /  / / | | . ` |  | |/ _ / _` | |/| |\n         /  /  | | |  |  | |  __/ (_| | |  | |\n        /  /   |_|_| _|  |_|___|__,_|_|  |_|      \n                                       since 2013\n    _____________________________________________\n    Proudly Presents:\n\nLets.Be.Cops.2014.720p.BRRip.x264.AC3-WiNTeaM\n\nFormat                                   : Matroska\nFormat version                           : Version 4 / Version 2\nFile size                                : 2.51 GiB\nDuration                                 : 1h 44mn\nOverall bit rate                         : 3 441 Kbps\nMovie name                               : Lets.Be.Cops.2014.720p.BRRip.x264.AC3-WiNTeaM\nEncoded date                             : UTC 2014-10-26 20:06:06\nWriting application                      : mkvmerge v7.3.0 ('Nouages') 64bit built on Oct 22 2014 18:53:34\nWriting library                          : libebml v1.3.0 + libmatroska v1.4.1\nRipped by                                : Micasxuxu@WiNTeaM\nVideo Source                             : Lets.Be.Cops.2014.1080p.BluRay.x264-SPARKS\n_STATISTICS_WRITING_APP                  : mkvmerge v7.3.0 ('Nouages') 64bit built on Oct 22 2014 18:53:34\n_STATISTICS_WRITING_DATE_UTC             : 2014-10-26 20:06:06\n_STATISTICS_TAGS                         : BPS DURATION NUMBER_OF_FRAMES NUMBER_OF_BYTES\nDURATION                                 : 01:42:25.526000000\nNUMBER_OF_FRAMES                         : 2077\nNUMBER_OF_BYTES                          : 63473\n\nVideo\nID                                       : 1\nFormat                                   : AVC\nFormat/Info                              : Advanced Video Codec\nFormat profile                           : &lt;a class=&quot;__cf_email__&quot; href=&quot;/cdn-cgi/l/email-protection&quot; data-cfemail=&quot;88c0e1efe0c8c4bca6b9&quot;&gt;[email&amp;#160;protected]&lt;/a&gt;&lt;script cf-hash='f9e31' type=&quot;text/javascript&quot;&gt;\n/* &lt;![CDATA[ */!function(){try{var t=&quot;currentScript&quot;in document?document.currentScript:function(){for(var t=document.getElementsByTagName(&quot;script&quot;),e=t.length;e--;)if(t[e].getAttribute(&quot;cf-hash&quot;))return t[e]}();if(t&amp;&amp;t.previousSibling){var e,r,n,i,c=t.previousSibling,a=c.getAttribute(&quot;data-cfemail&quot;);if(a){for(e=&quot;&quot;,r=parseInt(a.substr(0,2),16),n=2;a.length-n;n+=2)i=parseInt(a.substr(n,2),16)^r,e+=String.fromCharCode(i);e=document.createTextNode(e),c.parentNode.replaceChild(e,c)}}}catch(u){}}();/* ]]&gt; */&lt;/script&gt;\nFormat settings, CABAC                   : Yes\nFormat settings, ReFrames                : 9 frames\nCodec ID                                 : V_MPEG4/ISO/AVC\nDuration                                 : 1h 44mn\nBit rate                                 : 2 995 Kbps\nWidth                                    : 1 280 pixels\nHeight                                   : 690 pixels\nDisplay aspect ratio                     : 1.85:1\nFrame rate mode                          : Constant\nFrame rate                               : 23.976 fps\nColor space                              : YUV\nChroma subsampling                       : 4:2:0\nBit depth                                : 8 bits\nScan type                                : Progressive\nBits/(Pixel*Frame)                       : 0.141\nStream size                              : 2.13 GiB (85%)\nWriting library                          : x264 core 142 r2479 dd79a61\nEncoding settings                        : cabac=1 / ref=9 / deblock=1:-3:-3 / analyse=0x3:0x133 / me=umh / subme=10 / psy=1 / psy_rd=1.00:0.07 / mixed_ref=1 / me_range=64 / chroma_me=1 / trellis=2 / 8x8dct=1 / cqm=0 / deadzone=21,11 / fast_pskip=0 / chroma_qp_offset=-3 / threads=12 / lookahead_threads=3 / sliced_threads=0 / nr=0 / decimate=1 / interlaced=0 / bluray_compat=0 / constrained_intra=0 / bframes=16 / b_pyramid=2 / b_adapt=2 / b_bias=0 / direct=3 / weightb=1 / open_gop=0 / weightp=2 / keyint=240 / keyint_min=23 / scenecut=40 / intra_refresh=0 / rc_lookahead=240 / rc=2pass / mbtree=1 / bitrate=2995 / ratetol=1.0 / qcomp=0.60 / qpmin=0 / qpmax=69 / qpstep=4 / cplxblur=20.0 / qblur=0.5 / vbv_maxrate=40000 / vbv_bufsize=30000 / nal_hrd=none / filler=0 / ip_ratio=1.30 / aq=1:1.00\nDefault                                  : Yes\nForced                                   : No\nColor primaries                          : BT.709\nTransfer characteristics                 : BT.709\nMatrix coefficients                      : BT.709\n\nAudio\nID                                       : 2\nFormat                                   : AC-3\nFormat/Info                              : Audio Coding 3\nMode extension                           : CM (complete main)\nFormat settings, Endianness              : Big\nCodec ID                                 : A_AC3\nDuration                                 : 1h 44mn\nBit rate mode                            : Constant\nBit rate                                 : 448 Kbps\nChannel(s)                               : 6 channels\nChannel positions                        : Front: L C R, Side: L R, LFE\nSampling rate                            : 48.0 KHz\nBit depth                                : 16 bits\nCompression mode                         : Lossy\nStream size                              : 335 MiB (13%)\nLanguage                                 : English\nDefault                                  : Yes\nForced                                   : No\n\nText #1\nID                                       : 3\nFormat                                   : VobSub\nMuxing mode                              : zlib\nCodec ID                                 : S_VOBSUB\nCodec ID/Info                            : The same subtitle format used on DVDs\nLanguage                                 : English\nDefault                                  : No\nForced                                   : No\n\nText #2\nID                                       : 4\nFormat                                   : UTF-8\nCodec ID                                 : S_TEXT/UTF8\nCodec ID/Info                            : UTF-8 Plain Text\nLanguage                                 : English\nDefault                                  : No\nForced                                   : No\n\nMenu\n00:00:00.000                             : en:00:00:00.000\n00:01:58.785                             : en:00:01:58.785\n00:03:34.798                             : en:00:03:34.798\n00:07:24.653                             : en:00:07:24.653\n00:11:11.629                             : en:00:11:11.629\n00:13:44.282                             : en:00:13:44.282\n00:17:39.100                             : en:00:17:39.100\n00:19:59.657                             : en:00:19:59.657\n00:23:06.135                             : en:00:23:06.135\n00:26:43.602                             : en:00:26:43.602\n00:31:26.927                             : en:00:31:26.927\n00:33:19.664                             : en:00:33:19.664\n00:39:32.203                             : en:00:39:32.203\n00:41:30.655                             : en:00:41:30.655\n00:44:34.422                             : en:00:44:34.422\n00:48:47.925                             : en:00:48:47.925\n00:52:29.146                             : en:00:52:29.146\n00:54:43.322                             : en:00:54:43.322\n00:59:54.591                             : en:00:59:54.591\n01:02:48.014                             : en:01:02:48.014\n01:06:55.595                             : en:01:06:55.595\n01:09:15.735                             : en:01:09:15.735\n01:10:45.241                             : en:01:10:45.241\n01:14:03.022                             : en:01:14:03.022\n01:18:00.217                             : en:01:18:00.217\n01:21:58.664                             : en:01:21:58.664\n01:24:54.965                             : en:01:24:54.965\n01:28:35.393                             : en:01:28:35.393\n01:30:09.571                             : en:01:30:09.571\n01:33:38.029                             : en:01:33:38.029\n01:37:09.449                             : en:01:37:09.449\n01:38:32.115                             : en:01:38:32.115\n\n    ...................................................................\n\n    Ripper Notes.........: Thanks to SPARKS\n\n                           Seed, Share, but don't forget to keep the credits ;) \n                               \n                           Respect our work\n\n    Group Notes..........: We are currently Looking for Portuguese Android Modders.\n                           If you are interested, please contact us @ winteam [@] inboxcom\n\n                           Neste momento procuramos Android Modders Portugueses.\n                           Pedimos aos interessados que nos contactem atraves do mail:  winteam [@] inboxcom\n\n    ...................................................................\n\n    Group Greets.........: FLAWL3SS * ViSiON * D-ZON3 * CHD * DAA\n                           AMIABLE * DIAMOND * FraMeSToR * LEGiON\n                           CORE * KRaLiMaRKo * iNViNCiBLE * SPARKS\n\n    ___________________________________________________________________\n\n                     *** WiNTeaM  / Since 2013 ***","torrent":{"xt":"urn:btih:7ae6511de661598ab204676c9ef96cd451962e76","amp;dn":"Lets.Be.Cops.2014.720p.BRRip.x264.AC3-WiNTeaM","amp;tr":["udp%3A%2F%2Ftracker.openbittorrent.com%3A80","udp%3A%2F%2Fopen.demonii.com%3A1337","udp%3A%2F%2Ftracker.coppersurfer.tk%3A6969","udp%3A%2F%2Fexodus.desync.com%3A6969"],"infoHash":"7ae6511de661598ab204676c9ef96cd451962e76","infoHashBuffer":{"type":"Buffer","data":[122,230,81,29,230,97,89,138,178,4,103,108,158,249,108,212,81,150,46,118]},"announce":[],"urlList":[]}}